<mxfile host="app.diagrams.net" agent="Mozilla/5.0 (Macintosh; Intel Mac OS X 10_15_7) AppleWebKit/537.36 (KHTML, like Gecko) Chrome/128.0.0.0 Safari/537.36" version="24.7.7">
  <diagram name="第 1 页" id="tCdG8bPiog5dzv9qi_tu">
    <mxGraphModel dx="1242" dy="785" grid="1" gridSize="10" guides="1" tooltips="1" connect="1" arrows="1" fold="1" page="1" pageScale="1" pageWidth="827" pageHeight="1169" math="0" shadow="0">
      <root>
        <mxCell id="0" />
        <mxCell id="1" parent="0" />
        <mxCell id="YncoGZfrOfIXqg6F_l0_-33" value="" style="rounded=1;whiteSpace=wrap;html=1;" vertex="1" parent="1">
          <mxGeometry x="560" y="320" width="135" height="360" as="geometry" />
        </mxCell>
        <mxCell id="YncoGZfrOfIXqg6F_l0_-5" value="&lt;font style=&quot;font-size: 18px;&quot;&gt;Titan&lt;/font&gt;" style="shape=umlFrame;whiteSpace=wrap;html=1;pointerEvents=0;sketch=1;curveFitting=1;jiggle=2;" vertex="1" parent="1">
          <mxGeometry x="40" y="370" width="300" height="200" as="geometry" />
        </mxCell>
        <mxCell id="YncoGZfrOfIXqg6F_l0_-6" value="待发布的&lt;br&gt;朋友圈内容" style="shape=process;whiteSpace=wrap;html=1;backgroundOutline=1;sketch=1;curveFitting=1;jiggle=2;" vertex="1" parent="1">
          <mxGeometry x="80" y="430" width="120" height="60" as="geometry" />
        </mxCell>
        <mxCell id="YncoGZfrOfIXqg6F_l0_-24" style="edgeStyle=orthogonalEdgeStyle;rounded=0;orthogonalLoop=1;jettySize=auto;html=1;entryX=0.5;entryY=0;entryDx=0;entryDy=0;" edge="1" parent="1" source="YncoGZfrOfIXqg6F_l0_-7" target="YncoGZfrOfIXqg6F_l0_-22">
          <mxGeometry relative="1" as="geometry" />
        </mxCell>
        <mxCell id="YncoGZfrOfIXqg6F_l0_-7" value="确认发送" style="rounded=1;fillColor=#0057D8;strokeColor=none;html=1;whiteSpace=wrap;fontColor=#ffffff;align=center;verticalAlign=middle;fontStyle=0;fontSize=12;sketch=0;" vertex="1" parent="1">
          <mxGeometry x="230" y="443.5" width="86" height="33" as="geometry" />
        </mxCell>
        <mxCell id="YncoGZfrOfIXqg6F_l0_-8" value="用来制作朋友圈模版的微信账号" style="ellipse;whiteSpace=wrap;html=1;fillColor=#d5e8d4;strokeColor=#82b366;" vertex="1" parent="1">
          <mxGeometry x="440" y="190" width="120" height="80" as="geometry" />
        </mxCell>
        <mxCell id="YncoGZfrOfIXqg6F_l0_-9" value="1" style="ellipse;whiteSpace=wrap;html=1;aspect=fixed;fillColor=#a20025;fontColor=#ffffff;strokeColor=#6F0000;" vertex="1" parent="1">
          <mxGeometry x="414" y="150" width="20" height="20" as="geometry" />
        </mxCell>
        <mxCell id="YncoGZfrOfIXqg6F_l0_-10" value="在该微信上编辑朋友圈并发布" style="text;html=1;align=center;verticalAlign=middle;whiteSpace=wrap;rounded=0;fontStyle=1" vertex="1" parent="1">
          <mxGeometry x="434" y="145" width="180" height="30" as="geometry" />
        </mxCell>
        <mxCell id="YncoGZfrOfIXqg6F_l0_-11" value="" style="endArrow=classic;html=1;rounded=0;edgeStyle=orthogonalEdgeStyle;curved=1;" edge="1" parent="1">
          <mxGeometry width="50" height="50" relative="1" as="geometry">
            <mxPoint x="140" y="430" as="sourcePoint" />
            <mxPoint x="438" y="230" as="targetPoint" />
            <Array as="points">
              <mxPoint x="140" y="398" />
              <mxPoint x="184" y="398" />
              <mxPoint x="184" y="230" />
              <mxPoint x="438" y="230" />
            </Array>
          </mxGeometry>
        </mxCell>
        <mxCell id="YncoGZfrOfIXqg6F_l0_-13" value="2" style="ellipse;whiteSpace=wrap;html=1;aspect=fixed;fillColor=#a20025;fontColor=#ffffff;strokeColor=#6F0000;" vertex="1" parent="1">
          <mxGeometry x="110" y="200" width="20" height="20" as="geometry" />
        </mxCell>
        <mxCell id="YncoGZfrOfIXqg6F_l0_-14" value="Titan通过破解的接口拉取该账号最新的朋友圈（自己发的）" style="text;html=1;align=center;verticalAlign=middle;whiteSpace=wrap;rounded=0;fontStyle=1" vertex="1" parent="1">
          <mxGeometry x="40" y="230" width="180" height="30" as="geometry" />
        </mxCell>
        <mxCell id="YncoGZfrOfIXqg6F_l0_-22" value="管家在titan上确认该朋友圈内容是不是准备发送的" style="text;html=1;align=center;verticalAlign=middle;whiteSpace=wrap;rounded=0;fontStyle=1" vertex="1" parent="1">
          <mxGeometry x="183" y="625" width="180" height="30" as="geometry" />
        </mxCell>
        <mxCell id="YncoGZfrOfIXqg6F_l0_-23" value="3" style="ellipse;whiteSpace=wrap;html=1;aspect=fixed;fillColor=#a20025;fontColor=#ffffff;strokeColor=#6F0000;" vertex="1" parent="1">
          <mxGeometry x="150" y="625" width="20" height="20" as="geometry" />
        </mxCell>
        <mxCell id="YncoGZfrOfIXqg6F_l0_-25" value="管家账号1" style="ellipse;whiteSpace=wrap;html=1;fillColor=#ffe6cc;strokeColor=#d79b00;" vertex="1" parent="1">
          <mxGeometry x="582.5" y="350" width="90" height="60" as="geometry" />
        </mxCell>
        <mxCell id="YncoGZfrOfIXqg6F_l0_-30" value="管家账号2" style="ellipse;whiteSpace=wrap;html=1;fillColor=#ffe6cc;strokeColor=#d79b00;" vertex="1" parent="1">
          <mxGeometry x="582.5" y="423.5" width="90" height="60" as="geometry" />
        </mxCell>
        <mxCell id="YncoGZfrOfIXqg6F_l0_-31" value="管家账号3" style="ellipse;whiteSpace=wrap;html=1;fillColor=#ffe6cc;strokeColor=#d79b00;" vertex="1" parent="1">
          <mxGeometry x="592.5" y="510" width="90" height="60" as="geometry" />
        </mxCell>
        <mxCell id="YncoGZfrOfIXqg6F_l0_-32" value="……" style="ellipse;whiteSpace=wrap;html=1;fillColor=#ffe6cc;strokeColor=#d79b00;" vertex="1" parent="1">
          <mxGeometry x="592.5" y="590" width="90" height="60" as="geometry" />
        </mxCell>
      </root>
    </mxGraphModel>
  </diagram>
</mxfile>
